<svg width="42" height="42" viewBox="0 0 42 42" fill="none" xmlns="http://www.w3.org/2000/svg">
<rect width="42" height="42" fill="#FF6C0E"/>
<g clip-path="url(#clip0_158_6977)">
<path d="M8.74774 26.9308C10.5797 26.9308 11.4955 28.0983 11.4955 29.1954V31.6657H10.2969V29.1954C10.2969 28.5091 9.87573 27.3426 8.74677 27.3426C7.6178 27.3426 7.19861 28.5091 7.19861 29.1954V31.6657H6V29.1954C6 28.0973 6.84551 26.9308 8.74774 26.9308Z" fill="white"/>
<path d="M24.951 31.803C23.1191 31.803 22.2033 30.6356 22.2033 29.5384V27.0681H23.4019V29.5384C23.4019 30.2247 23.8231 31.3913 24.952 31.3913C26.081 31.3913 26.5021 30.2238 26.5021 29.5384V27.0681H27.7007V29.5384C27.6301 30.6365 26.7849 31.803 24.953 31.803" fill="white"/>
<path d="M16.2161 31.3912C15.9294 31.6093 15.5895 31.7512 15.2296 31.803C14.031 32.009 12.4113 31.1855 12.341 29.4699C12.2707 27.7543 14.0317 26.9993 15.1593 26.9993C17.0616 27.0681 17.7661 28.5091 17.7661 29.3326V31.7345H16.5675V29.3326C16.5675 28.7836 16.2857 27.4798 15.0881 27.4798C13.8904 27.4798 13.538 28.5776 13.538 29.3326C13.538 29.8817 13.6789 31.1167 15.0174 31.1855C15.4402 31.1855 16.0039 31.1167 16.2161 30.9794V31.3912Z" fill="white"/>
<path d="M21.5 32.4208C21.3591 32.4893 20.9363 32.5581 20.4433 32.4208C19.8796 32.2836 18.9638 32.0106 18.9638 30.1559V24.9404H20.0918V26.9993H21.1479V27.7541H20.0918V30.4304C20.0918 31.46 20.3736 31.8718 20.6555 31.9403C20.9373 32.0775 21.4307 32.0091 21.501 32.0091L21.5 32.4208Z" fill="white"/>
<path d="M28.7568 29.1263C28.7568 27.9588 29.3911 27.1362 30.4478 27.0678C31.2227 26.999 31.4343 27.1362 31.4343 27.1362V27.6165C31.4343 27.6165 31.0131 27.4795 30.5887 27.6165C30.0954 27.7537 29.8842 28.5088 29.8842 28.7145V31.8027H28.6855L28.7568 29.1263Z" fill="white"/>
<path d="M35.4499 31.3912C35.1634 31.6093 34.8236 31.7512 34.4638 31.803C33.2652 32.009 31.6455 31.1855 31.5752 29.4699C31.5049 27.7543 33.2659 26.9993 34.3935 26.9993C36.2958 27.0681 37.0003 28.5091 37.0003 29.3326V31.7345H35.8033V29.3326C35.8033 28.7836 35.5215 27.4798 34.3239 27.4798C33.1262 27.4798 32.7738 28.5776 32.7738 29.3326C32.7738 29.8817 32.9147 31.1167 34.2533 31.1855C34.6744 31.1855 35.2397 31.1167 35.4519 30.9794L35.4499 31.3912Z" fill="white"/>
<path d="M21.6409 13.6862C21.2888 14.8537 21.2182 15.1273 21.007 15.7448C20.866 16.2253 20.5842 16.431 20.2317 16.431C19.9499 16.431 19.6681 16.2938 19.4569 16.0209C18.8229 15.2661 17.9774 14.168 17.484 13.5505C16.85 12.8642 15.3706 12.2464 14.5953 13.1403C13.5386 14.4441 14.8069 15.954 15.5818 16.846C15.6524 16.9148 15.7227 16.9832 15.7227 17.052C15.8636 17.2578 16.0751 17.395 16.2161 17.6007C16.5682 18.0125 16.9203 18.287 16.7091 18.5615C16.6385 18.6988 16.4273 18.7676 16.2161 18.7676C15.6524 18.7676 13.8188 18.287 13.3977 18.2186C13.0456 18.1498 12.7637 18.1498 12.6228 18.4243C12.4819 18.7676 12.975 19.6596 14.1726 20.2771C15.3702 20.8946 17.3431 21.1694 17.484 21.2379C18.1886 21.3752 18.0477 21.7185 17.9068 21.9242L17.7658 22.0583C17.6249 22.1956 17.5546 22.2644 17.5546 22.4013C17.6249 22.8131 18.6113 22.9503 19.1744 23.0191C19.7374 23.0879 20.4426 23.1564 20.9357 22.9503C21.4287 22.7443 21.4291 22.4701 21.7812 22.3328C22.1333 22.1956 22.2742 22.2644 22.697 22.3328C22.8379 22.4013 23.0495 22.4013 23.3313 22.4701C23.9653 22.6073 25.022 22.4701 25.6563 22.2644C26.7836 21.921 27.276 21.5093 27.276 21.372C27.276 21.2348 27.0645 21.1663 26.8549 21.1663C26.6437 21.0975 25.7982 20.9602 25.5163 20.823C25.2345 20.6173 25.4457 20.3427 26.0094 20.1367C26.573 19.9307 28.4066 19.1762 29.1096 18.559C29.8125 17.9418 30.4481 16.9122 29.8845 16.3632C29.3914 15.8142 28.5459 16.226 27.9822 16.5005C27.9116 16.5689 27.8413 16.5689 27.7707 16.6377C27.0661 16.9807 25.8685 17.5982 25.4457 17.667C25.0936 17.7355 24.4593 17.7355 24.7411 16.9122C25.0936 15.9514 25.3048 15.3346 25.5163 14.7161C25.7982 13.9614 26.2209 12.177 24.389 11.628C23.0501 11.1471 22.1327 12.2452 21.6409 13.6862ZM19.9499 14.2352C19.9499 14.2352 20.5129 12.3821 20.9363 11.5589C21.6409 10.1863 22.9102 9.5 24.2477 9.5C24.459 9.5 24.6705 9.5 24.8114 9.56847C27.5591 10.049 27.6298 12.7939 27.4182 13.7547C27.2067 14.6467 26.8546 15.539 26.7843 15.8135V15.882C26.9955 15.8135 27.9829 15.333 29.0386 14.8527C30.0953 14.4425 31.9979 14.4425 31.5045 16.4998C31.0115 18.6272 28.5456 19.8622 28.265 19.931C28.0535 20.0682 27.7014 20.2055 27.6307 20.274C27.5601 20.3424 27.5604 20.3427 27.6307 20.3427C27.701 20.3427 27.7717 20.3427 27.9126 20.4112C28.265 20.4112 28.7581 20.48 28.7581 20.7545C28.7581 21.1663 28.1241 21.7838 26.3628 22.5386C24.5309 23.3621 22.9808 22.9487 22.558 22.8819C22.4171 23.0191 21.5719 23.8427 19.1763 23.3621C17.415 23.0876 16.9922 22.8819 16.5695 22.4013C16.4286 22.2644 16.3583 22.0583 16.4989 21.7153C16.5695 21.6465 16.5695 21.5781 16.4989 21.5781C13.8218 21.029 12.2014 19.3819 11.6377 18.3527C11.3559 17.8036 11.4262 17.4603 11.5671 17.2546C11.7786 16.9116 12.4832 16.9116 13.1868 17.1173C14.032 17.3231 14.4548 17.4603 14.5957 17.4603C14.6663 17.4603 14.6663 17.4603 14.5957 17.3919C14.3845 17.1173 13.6799 16.2244 13.3277 15.6763C12.6931 14.7155 11.9182 12.2452 13.9614 11.2156C16.1454 10.0481 18.1183 12.1076 18.541 12.5881C18.8932 13.0684 19.6681 14.0292 19.7397 14.1658C19.8806 14.3719 19.9509 14.2346 19.9509 14.2346L19.9499 14.2352Z" fill="white"/>
</g>
<defs>
<clipPath id="clip0_158_6977">
<rect width="31" height="23" fill="white" transform="translate(6 9.5)"/>
</clipPath>
</defs>
</svg>
